Coordinates
version=1
nRows=19
nColumns=36
inDegrees=yes

Units are S.I. units (second, meters, Newtons, ...)
If the header above contains a line with 'inDegrees', this indicates whether rotational values are in degrees (yes) or radians (no).

endheader
time	pelvis_tilt	pelvis_list	pelvis_rotation	pelvis_tx	pelvis_ty	pelvis_tz	hip_flexion_r	hip_adduction_r	hip_rotation_r	knee_angle_r	knee_angle_r_beta	ankle_angle_r	subtalar_angle_r	mtp_angle_r	hip_flexion_l	hip_adduction_l	hip_rotation_l	knee_angle_l	knee_angle_l_beta	ankle_angle_l	subtalar_angle_l	mtp_angle_l	lumbar_extension	lumbar_bending	lumbar_rotation	arm_flex_r	arm_add_r	arm_rot_r	elbow_flex_r	pro_sup_r	arm_flex_l	arm_add_l	arm_rot_l	elbow_flex_l	pro_sup_l
      0.00000000	      5.09426732	      1.14805354	     -1.96068363	     -0.97375508	      1.32417191	     -0.06870554	     -5.55224429	     -2.69067102	      6.24649312	      3.44723178	      0.06016554	      7.41007647	     -9.46910064	     -5.33463698	     -6.38696920	     -0.42616548	      3.61589179	      2.55057007	      0.04451585	      7.17217277	     -5.35135498	     -5.33463698	    -17.95680953	     -0.45747268	      1.82909300	     11.08597834	     -6.31163829	     26.30951208	     25.53060661	     71.92135482	      7.46665930	     -6.70694582	     24.18992644	     25.70057716	     65.32877843
      0.00416670	      6.44703317	      1.12720784	     -1.89453195	     -0.97566726	      1.32373902	     -0.06933544	     -7.43249621	     -2.53739312	      7.67879114	      2.62257340	      0.04577254	      9.44993472	     -8.99833934	     -5.26094380	     -8.12867445	     -0.20392446	      5.60022085	      1.95994097	      0.03420742	      6.72580040	     -7.25153815	     -5.26094380	    -19.41385270	     -0.39527976	      1.89755107	     11.54221809	     -6.44720874	     26.17953421	     26.02677894	     72.59702917	      7.91958790	     -6.70790099	     24.65832947	     26.79405312	     65.90135505
      0.00833330	      5.63646016	      1.35528195	     -2.18394029	     -0.97426818	      1.32550846	     -0.06688348	     -6.81707110	     -2.64491912	      8.16925628	      1.84013094	      0.03211634	      9.29582900	    -10.07158587	     -5.81706851	     -7.33117482	     -0.05741158	      6.04033411	      2.08627888	      0.03641244	      6.71161638	     -8.37026892	     -5.81706851	    -18.76157611	     -1.06257422	      2.72081929	     10.97077400	     -5.79839849	     23.74853913	     26.24765847	     74.72766357	      8.50360638	     -6.77746855	     24.95328467	     26.41424206	     68.20155519
      0.01250000	      6.40272007	      1.33416295	     -2.41434016	     -0.97567675	      1.32692606	     -0.06717400	     -7.70626942	     -2.76622543	      8.26425331	      1.49186558	      0.02603797	      9.50324851	     -9.82849322	     -6.08052625	     -8.36989912	     -0.01576725	      6.53240799	      1.75283349	      0.03059272	      6.70747212	     -9.10685652	     -6.08052625	    -19.92448874	     -1.23352417	      2.99049639	     11.09789314	     -5.31870031	     22.83788160	     26.02299518	     74.53709150	      8.95846795	     -6.53717808	     24.25168063	     26.08580954	     68.30360617
      0.01666670	      6.72483478	      1.25937780	     -2.64727918	     -0.97660293	      1.32806054	     -0.06704164	     -8.06095991	     -2.75508385	      8.71429184	      1.33541716	      0.02330743	      9.11431583	    -10.45260345	     -6.81882312	     -8.89419897	     -0.05328228	      6.81097686	      1.44321129	      0.02518879	      6.57146709	     -9.91317696	     -6.81882312	    -20.69205545	     -1.26851771	      3.44473753	     10.47101274	     -4.74492158	     17.36388262	     26.95109785	     88.26117176	      8.88644843	     -6.12430564	     20.19277502	     26.73889398	     80.25569659
      0.02083330	      6.99835110	      1.24634085	     -2.76137266	     -0.97723064	      1.32668444	     -0.06723791	     -8.33399354	     -2.78466669	      8.96582145	      1.27683592	      0.02228499	      8.92242185	    -10.72613537	     -7.29601764	     -9.22243485	     -0.00166275	      7.02722217	      1.36429449	      0.02381143	      6.62627271	    -10.60855451	     -7.29601764	    -21.08449884	     -1.26350446	      3.68106106	     10.31741332	     -4.59622266	     16.75180900	     27.24536192	     90.11473730	      8.95697768	     -5.97968277	     19.15626762	     27.07522174	     83.69237169
      0.02500000	      7.18954333	      1.22834614	     -2.89351909	     -0.97670500	      1.32786577	     -0.06671265	     -8.52985470	     -2.80929871	      9.27992867	      1.23358105	      0.02153005	      8.57743889	    -11.11363145	     -7.44292604	     -9.50352449	      0.01599169	      6.98196486	      1.27869987	      0.02231752	      6.63655155	    -11.07532046	     -7.44292604	    -21.29887145	     -1.24854382	      3.86491516	     10.24388508	     -4.59986824	     17.06927009	     27.40318455	     90.96723237	      8.88816626	     -5.86264958	     18.21911036	     27.39903282	     86.30268359
      0.02916670	      7.31030944	      1.23176015	     -2.95108182	     -0.97689394	      1.32649853	     -0.06597241	     -8.66569603	     -2.81841602	      9.44697137	      1.20272260	      0.02099147	      8.28638321	    -11.49070589	     -7.47986673	     -9.65134911	      0.04346448	      7.15898134	      1.27424282	      0.02223973	      6.51104712	    -11.75460882	     -7.47986673	    -21.35344092	     -1.25699788	      4.00045722	     10.20368324	     -4.67969876	     17.91054401	     27.46352860	     91.19914815	      8.82115868	     -5.79575558	     17.69635182	     27.72762466	     88.59960492
      0.03333330	      7.39780943	      1.23333827	     -2.99564815	     -0.97592695	      1.32742421	     -0.06649926	     -8.80036497	     -2.82804021	      9.54501266	      1.15646908	      0.02018419	      8.06330756	    -11.70693084	     -7.49369848	     -9.78022956	      0.07102270	      7.41085156	      1.25104306	      0.02183482	      6.34332322	    -12.25964350	     -7.49369848	    -21.33329910	     -1.23274898	      4.06708065	     10.12993100	     -4.82622436	     18.82640779	     27.54810961	     91.03386813	      8.71958727	     -5.72812192	     17.50324720	     27.91022103	     89.85068701
      0.03750000	      7.40506913	      1.21839444	     -3.08910259	     -0.97752654	      1.32772744	     -0.06612921	     -8.80184943	     -2.79909880	      9.86624489	      1.09452888	      0.01910313	      7.80767968	    -12.00583642	     -7.49742873	     -9.79421419	      0.07033236	      7.44391210	      1.23577762	      0.02156839	      6.18466936	    -12.57700302	     -7.49742873	    -21.29465054	     -1.24785338	      4.19086919	     10.12543911	     -4.99906584	     19.64970128	     27.62566111	     91.20501305	      8.69478866	     -5.70147568	     17.46786102	     28.08512761	     91.00364298
      0.04166670	      7.31935442	      1.24831823	     -3.12392673	     -0.98158571	      1.32411884	     -0.06826193	     -8.56320921	     -2.82402894	     10.22762651	      1.14898520	      0.02005357	      7.69726827	    -12.38265899	     -7.49803187	     -9.54768588	      0.18050080	      7.81741787	      1.22197582	      0.02132750	      6.03659168	    -12.91594632	     -7.49803187	    -21.31223056	     -1.18401074	      4.17537437	     10.30169334	     -5.22743651	     20.86113138	     27.73710015	     89.29812817	      8.90539091	     -5.72573198	     18.42533045	     28.03374873	     89.32826244
      0.04583330	      7.34280812	      1.27396650	     -3.10767330	     -0.97790885	      1.32765422	     -0.06588182	     -8.56042477	     -2.79526573	     10.23455844	      1.14917521	      0.02005689	      7.69621625	    -12.37911514	     -7.49803200	     -9.54845921	      0.18061758	      7.81656250	      1.22607147	      0.02139898	      6.03366092	    -12.91643013	     -7.49803200	    -21.31288120	     -1.18295566	      4.17245352	     10.30009303	     -5.23198380	     20.86113259	     27.73639830	     89.29875846	      8.90557114	     -5.72102203	     18.42622984	     28.03432792	     89.32912789
      0.05000000	      7.41152336	      1.27314676	     -3.10643760	     -0.98106203	      1.32202288	     -0.06840807	     -8.58765426	     -2.80880343	     10.39043455	      1.19053525	      0.02077876	      7.60029722	    -12.46808316	     -7.49805173	     -9.55738361	      0.22338629	      8.11526634	      1.21930966	      0.02128097	      5.55891918	    -13.55077283	     -7.49805173	    -21.47371712	     -1.17668351	      4.13464228	     10.28338588	     -5.42685685	     21.32152644	     28.07056935	     89.70000234	      8.96511302	     -5.77826423	     18.81482693	     28.19610625	     89.83782855
      0.05416670	      7.37036658	      1.28017790	     -3.22165176	     -0.98003415	      1.32301489	     -0.06800619	     -8.46702310	     -2.83045130	     10.86270932	      1.28037390	      0.02234674	      7.24663824	    -13.20234557	     -7.49945462	     -9.47925256	      0.26673417	      8.16447351	      1.21577995	      0.02121936	      5.45749181	    -13.52520627	     -7.49945462	    -21.45413682	     -1.14893711	      4.25807845	     10.19980527	     -5.51509066	     20.48203201	     28.26778367	     93.06390331	      8.96396130	     -5.66455400	     18.19423312	     28.15180670	     93.66511975
      0.05833330	      7.36727475	      1.29079495	     -3.21042054	     -0.97652985	      1.32805434	     -0.06590808	     -8.51537816	     -2.79899904	     10.89082025	      1.28275549	      0.02238831	      7.20065652	    -13.17318061	     -7.49945540	     -9.53253589	      0.23518356	      8.19022985	      1.23974193	      0.02163758	      5.38528165	    -13.50835703	     -7.49945540	    -21.39352817	     -1.18078488	      4.24814233	     10.08760550	     -5.52571511	     20.49721457	     28.24449836	     93.06876902	      8.86882156	     -5.67629651	     18.20473734	     28.12272845	     93.66962087
      0.06250000	      7.24583507	      1.27388565	     -3.25735980	     -0.97641611	      1.32701255	     -0.06545208	     -8.48446104	     -2.75912512	     11.05973824	      1.20673059	      0.02106142	      7.02899591	    -13.39672747	     -7.49976833	     -9.50595074	      0.18869882	      8.32215950	      1.20003324	      0.02094453	      5.08638113	    -13.95343440	     -7.49976833	    -21.01493214	     -1.15828216	      4.35263953	      9.85554227	     -5.57794344	     20.58964807	     28.23698715	     93.87320324	      8.76311350	     -5.70732372	     18.53616918	     27.88894353	     94.19936037
      0.06666670	      7.35097631	      1.28869943	     -3.25158665	     -0.97601099	      1.32788485	     -0.06556264	     -8.69679587	     -2.76068925	     11.07942103	      1.10699325	      0.01932068	      6.95634264	    -13.43130124	     -7.49983069	     -9.70848816	      0.17117546	      8.48216260	      1.15579824	      0.02017248	      4.75885392	    -14.29786431	     -7.49983069	    -21.02546114	     -1.19742759	      4.33731661	      9.80777364	     -5.66680565	     21.53845019	     28.16119026	     90.95544939	      8.75238317	     -5.81502727	     19.51384165	     27.79075486	     91.26535069
      0.07083330	      7.17501674	      1.26407163	     -3.36789497	     -0.98084061	      1.32412609	     -0.06941884	     -8.41400420	     -2.78878492	     11.22082347	      1.14838358	      0.02004307	      6.86795892	    -13.61363218	     -7.49987337	     -9.47588309	      0.21058942	      8.39011590	      1.11306169	      0.01942659	      4.88030698	    -14.01618273	     -7.49987337	    -20.88891937	     -1.09368508	      4.36311703	      9.78287577	     -5.72108313	     20.70489438	     28.26443601	     93.68774152	      8.76450931	     -5.66430493	     19.06288473	     27.63337058	     93.96088600
      0.07500000	      7.12844317	      1.25251170	     -3.33005657	     -0.98108176	      1.32518026	     -0.06914274	     -8.27613068	     -2.81060860	     11.29307925	      1.17044477	      0.02042812	      6.73610980	    -13.86481506	     -7.49996127	     -9.35022026	      0.24764592	      8.75138046	      1.03805445	      0.01811747	      4.67700250	    -14.24275838	     -7.49996127	    -20.94006090	     -1.01658824	      4.24301880	      9.82773938	     -5.77679635	     20.34331093	     28.36848452	     94.86934576	      8.85326926	     -5.59044138	     19.01983548	     27.53353270	     94.83673538
